<svg width="1920" height="5953" viewBox="0 0 1920 5953" fill="none" xmlns="http://www.w3.org/2000/svg">
<g clip-path="url(#clip0)">
<rect width="1920" height="5953" fill="#111111"/>
<mask id="mask0" mask-type="alpha" maskUnits="userSpaceOnUse" x="0" y="0" width="1920" height="5953">
<rect width="1920" height="5953" fill="white"/>
</mask>
<g mask="url(#mask0)">
<path fill-rule="evenodd" clip-rule="evenodd" d="M4.56837 4721.43L-60 4747.24L-52.2417 4829L0 4824.79V5953H1921V4669.83L1943 4668.05L1911.96 4341L1848.04 4373.58C1784.16 4406.66 1656.24 4471.05 1525.85 4509.51C1395.41 4547.45 1262.4 4558.18 1126.15 4534.8C1077.06 4526.56 1027.52 4513.71 977.995 4500.86L977.702 4500.79L977.594 4500.76C889.841 4478 802.09 4455.24 716.76 4458.01C594.338 4461.99 476.699 4516.37 359.06 4570.75L358.686 4570.92C348.047 4575.84 337.41 4580.76 326.768 4585.64C198.273 4644.02 69.1367 4695.63 4.56837 4721.43Z" fill="url(#paint0_linear)"/>
</g>
<mask id="mask1" mask-type="alpha" maskUnits="userSpaceOnUse" x="0" y="0" width="1920" height="5953">
<rect width="1920" height="5953" fill="white"/>
</mask>
<g mask="url(#mask1)">
<path fill-rule="evenodd" clip-rule="evenodd" d="M1877.69 3561.14L1950.51 3562.52L1984.17 3883.02L2003.87 4070.56L2003.89 4070.81L2037.98 4395.32L1920 4403.92V5953H1886.38L1897.67 6060.49L175.421 6185.99L150.948 5953H0V4543.83L-125.586 4552.99L-159.672 4228.48L-159.698 4228.23L-179.397 4040.69L-192.021 3920.5L-121.309 3901.85C-120.155 3901.55 -118.982 3901.25 -117.791 3900.95C-116.117 3900.51 -114.407 3900.07 -112.661 3899.63L-112.647 3899.63C-39.4333 3880.78 96.5229 3845.77 236.484 3848.91C287.4 3850.04 338.813 3855.92 390.227 3861.8C485.923 3872.75 581.618 3883.69 674.103 3864.07C766.536 3843.96 855.758 3793.28 944.981 3742.6L945.001 3742.59C992.931 3715.36 1040.86 3688.14 1089.29 3665.65C1227.87 3601.31 1370.8 3578.28 1514.99 3567.39C1659.27 3557.26 1804.82 3559.26 1877.69 3561.14Z" fill="url(#paint1_linear)"/>
</g>
<mask id="mask2" mask-type="alpha" maskUnits="userSpaceOnUse" x="0" y="0" width="1920" height="5953">
<rect width="1920" height="5953" fill="white"/>
</mask>
<g mask="url(#mask2)">
<path fill-rule="evenodd" clip-rule="evenodd" d="M5.45806 2862.08L-61.8298 2887.87L-53.7449 2969.55L-31.4781 2967.83V2968.3L-52.8294 2969.95L-31.4781 3185.68V6064.28H1597.57V5953H1920V3588.32L2102.17 3574.23L2026.45 2809.15L641.161 2916.28H635.107L777.967 2905.23L1193.82 2873.07L1609.68 2840.91L1956.22 2814.11L2025.54 2808.75L1993.19 2482L1926.57 2514.55C1860.01 2547.6 1726.7 2611.93 1590.82 2650.35C1454.88 2688.26 1316.27 2698.98 1174.28 2675.62C1123.12 2667.39 1071.51 2654.55 1019.9 2641.72L1019.58 2641.64H1019.58L1019.47 2641.61C928.018 2618.87 836.571 2596.13 747.647 2598.9C620.069 2602.88 497.475 2657.21 374.881 2711.54L374.816 2711.56C373.074 2712.33 371.332 2713.1 369.589 2713.88C360.137 2718.07 350.684 2722.26 341.229 2726.41C207.322 2784.74 72.7462 2836.3 5.45806 2862.08Z" fill="url(#paint2_linear)"/>
</g>
<mask id="mask3" mask-type="alpha" maskUnits="userSpaceOnUse" x="0" y="0" width="1920" height="5953">
<rect width="1920" height="5953" fill="white"/>
</mask>
<g mask="url(#mask3)">
<path fill-rule="evenodd" clip-rule="evenodd" d="M1854.83 1641.3L1920 1604V1892V2181V2231V2402V5953V6021H-35V2402V2181V1892V1860L30.1667 1838.7C95.3333 1817 225.667 1775 356 1753.3C486.333 1732 616.667 1732 747 1748C812.167 1756 877.333 1768 942.499 1780L942.5 1780C1007.67 1792 1072.83 1804 1138 1812C1268.33 1828 1398.67 1828 1529 1790.7C1659.33 1753 1789.67 1679 1854.83 1641.3Z" fill="url(#paint3_linear)"/>
</g>
<mask id="mask4" mask-type="alpha" maskUnits="userSpaceOnUse" x="0" y="0" width="1920" height="5960">
<rect width="1920" height="5960" fill="white"/>
</mask>
<g mask="url(#mask4)">
<path fill-rule="evenodd" clip-rule="evenodd" d="M1900.72 574.037L1971.24 581.776L2003.47 886.752L1934.31 891.761L1588.51 916.804L1406.29 930H1407.88L2003.28 886.882L2027.61 1117L1920 1124.79V5953H1713.87V5960.14H-25.7632V1265.71L-47.1969 1267.26L-71.5192 1037.14L-25.7632 1033.83V1033.71L-71.3345 1037.01L-79.3931 960.765L-13.5949 923.948C-11.618 922.857 -9.58212 921.732 -7.48876 920.575L-7.45917 920.559C60.192 883.17 187.908 812.587 320.797 790.972C389.284 779.59 459.115 780.925 528.944 782.26C598.776 783.596 668.605 784.931 737.092 773.549C827.818 758.792 916.132 721.211 1004.44 683.63L1004.47 683.621C1049.53 664.447 1094.59 645.273 1139.96 629.131C1274.21 580.635 1411.28 558.704 1550.22 554.644C1679.26 550.873 1810.14 564.567 1884.58 572.356L1885.39 572.44C1890.81 573.008 1895.93 573.543 1900.72 574.037Z" fill="url(#paint4_linear)"/>
</g>
<mask id="mask5" mask-type="alpha" maskUnits="userSpaceOnUse" x="0" y="0" width="1920" height="5953">
<rect width="1920" height="5953" fill="white"/>
</mask>
<g mask="url(#mask5)">
<path fill-rule="evenodd" clip-rule="evenodd" d="M1952.81 322.525L1879.92 321.145C1806.96 319.264 1661.26 317.256 1516.82 327.391C1372.48 338.278 1229.4 361.308 1090.66 425.653C1042.18 448.14 994.197 475.367 946.213 502.593L946.204 502.598L946.198 502.601C856.881 553.28 767.564 603.958 675.033 624.07C582.449 643.694 486.651 632.75 390.854 621.805L390.85 621.805C339.381 615.925 287.914 610.045 236.946 608.906C96.8287 605.773 -39.278 640.776 -112.569 659.624L-112.575 659.626L-114.58 660.141C-116.861 660.728 -119.08 661.298 -121.233 661.85L-192.021 680.501L-179.383 800.688L-159.663 988.229L-159.637 988.48L-125.515 1312.99L-3.30397 1304.09V6021H499.151L509.966 6123.85L2269.98 5995.73L1920 2667.37V1164.09L2040.38 1155.32L2006.25 830.815L2006.23 830.564L1986.51 643.023L1952.81 322.525Z" fill="url(#paint5_linear)"/>
</g>
<mask id="mask6" mask-type="alpha" maskUnits="userSpaceOnUse" x="0" y="0" width="1920" height="5953">
<rect width="1920" height="5953" fill="white"/>
</mask>
<g mask="url(#mask6)">
<path fill-rule="evenodd" clip-rule="evenodd" d="M1920 185L1855.18 222.3C1790.37 260 1660.73 334 1531.1 371.7C1401.47 409 1271.84 409 1142.2 393C1077.39 385 1012.57 373 947.755 361C882.939 349 818.122 337 753.306 329C623.673 313 494.041 313 364.408 334.3C234.776 356 105.143 398 40.3265 419.7L-24.4898 441V473V816H-65V6021H1920V983V816V473V185Z" fill="url(#paint6_linear)"/>
</g>
<mask id="mask7" mask-type="alpha" maskUnits="userSpaceOnUse" x="0" y="1" width="1920" height="5952">
<rect y="1" width="1920" height="5952" fill="white"/>
</mask>
<g mask="url(#mask7)">
<path fill-rule="evenodd" clip-rule="evenodd" d="M-211.343 465.603L-284.059 497.123L-275.322 596.991L-274.553 596.923L-35 3335.02V6021H199.993L224.166 6297.3L2205 6124L1920 2866.45V404.924L1971.69 400.402L1936.75 0.932617L1864.75 40.7227C1792.81 81.1369 1648.75 159.781 1501.91 206.748C1355.02 253.091 1205.21 266.197 1051.77 237.639C996.37 227.551 940.481 211.826 884.591 196.1C785.724 168.282 686.857 140.464 590.72 143.853C452.854 148.712 320.373 215.128 187.892 281.546L187.881 281.551C175.761 287.628 163.64 293.705 151.515 299.734C6.80591 371.044 -138.627 434.084 -211.343 465.603Z" fill="url(#paint7_linear)"/>
</g>
</g>
<defs>
<linearGradient id="paint0_linear" x1="932.031" y1="4401.98" x2="1030.52" y2="5873.37" gradientUnits="userSpaceOnUse">
<stop stop-color="white" stop-opacity="0.03"/>
<stop offset="0.980284" stop-color="white" stop-opacity="0.01"/>
</linearGradient>
<linearGradient id="paint1_linear" x1="885.584" y1="3690.6" x2="1247.97" y2="6177.92" gradientUnits="userSpaceOnUse">
<stop stop-color="white" stop-opacity="0.03"/>
<stop offset="0.980284" stop-color="white" stop-opacity="0.01"/>
</linearGradient>
<linearGradient id="paint2_linear" x1="1020.17" y1="2482" x2="1020.17" y2="6064.28" gradientUnits="userSpaceOnUse">
<stop stop-color="white" stop-opacity="0.03"/>
<stop offset="0.980284" stop-color="white" stop-opacity="0.01"/>
</linearGradient>
<linearGradient id="paint3_linear" x1="942.5" y1="1604" x2="942.5" y2="6021" gradientUnits="userSpaceOnUse">
<stop stop-color="white" stop-opacity="0.03"/>
<stop offset="0.980284" stop-color="white" stop-opacity="0.01"/>
</linearGradient>
<linearGradient id="paint4_linear" x1="974.107" y1="554" x2="974.107" y2="5960.14" gradientUnits="userSpaceOnUse">
<stop stop-color="white" stop-opacity="0.03"/>
<stop offset="0.980284" stop-color="white" stop-opacity="0.01"/>
</linearGradient>
<linearGradient id="paint5_linear" x1="1038.98" y1="319.612" x2="1038.98" y2="6123.85" gradientUnits="userSpaceOnUse">
<stop stop-color="white" stop-opacity="0.03"/>
<stop offset="0.980284" stop-color="white" stop-opacity="0.01"/>
</linearGradient>
<linearGradient id="paint6_linear" x1="927.5" y1="185" x2="927.5" y2="6021" gradientUnits="userSpaceOnUse">
<stop stop-color="white" stop-opacity="0.03"/>
<stop offset="0.980284" stop-color="white" stop-opacity="0.01"/>
</linearGradient>
<linearGradient id="paint7_linear" x1="445.659" y1="36.7186" x2="445.659" y2="5903.01" gradientUnits="userSpaceOnUse">
<stop stop-color="white" stop-opacity="0.03"/>
<stop offset="1" stop-color="white" stop-opacity="0.01"/>
</linearGradient>
<clipPath id="clip0">
<rect width="1920" height="5953" fill="white"/>
</clipPath>
</defs>
</svg>
