<svg width="16" height="27" viewBox="0 0 16 27" fill="none" xmlns="http://www.w3.org/2000/svg">
<path d="M1.9375 26.4688C2.48438 26.4688 2.92188 26.2812 3.28125 25.9062L14.6875 14.7656C15.1562 14.3125 15.375 13.8281 15.3906 13.2344C15.3906 12.6562 15.1562 12.1406 14.7031 11.7031L3.29688 0.5625C2.92188 0.1875 2.46875 0 1.9375 0C0.859375 0 0 0.859375 0 1.92188C0 2.45312 0.21875 2.95312 0.609375 3.32812L10.7812 13.25L0.609375 23.1406C0.21875 23.5156 0 24.0156 0 24.5469C0 25.6094 0.859375 26.4688 1.9375 26.4688Z" fill="#787878"/>
</svg>
