<svg width="32" height="32" viewBox="0 0 32 32" fill="none" xmlns="http://www.w3.org/2000/svg">
<path d="M9.9375 29.4688C10.4844 29.4688 10.9219 29.2812 11.2812 28.9062L22.6875 17.7656C23.1562 17.3125 23.375 16.8281 23.3906 16.2344C23.3906 15.6562 23.1562 15.1406 22.7031 14.7031L11.2969 3.5625C10.9219 3.1875 10.4688 3 9.9375 3C8.85938 3 8 3.85938 8 4.92188C8 5.45312 8.21875 5.95312 8.60938 6.32812L18.7812 16.25L8.60938 26.1406C8.21875 26.5156 8 27.0156 8 27.5469C8 28.6094 8.85938 29.4688 9.9375 29.4688Z" fill="#787878"/>
</svg>
