<svg width="14" height="20" viewBox="0 0 14 20" fill="none" xmlns="http://www.w3.org/2000/svg">
<path fill-rule="evenodd" clip-rule="evenodd" d="M0 7.1523C0 3.20859 3.14013 0 7 0C10.8596 0 14 3.20859 14 7.1523V12.8698C14 16.8013 10.8596 20 7 20C3.14013 20 0 16.7916 0 12.8479V7.1523ZM7 18.6755C10.134 18.6755 12.6834 16.0711 12.6834 12.8698V7.1523C12.6834 3.93883 10.134 1.32449 7 1.32449C3.86624 1.32449 1.31664 3.93883 1.31664 7.1523V12.8477C1.31664 16.0612 3.86624 18.6755 7 18.6755Z" fill="white"/>
<path d="M7 6C6.44768 6 6 6.32559 6 6.72728V9.27272C6 9.67441 6.44768 10 7 10C7.55232 10 8 9.67441 8 9.27272V6.72728C8 6.32559 7.55232 6 7 6Z" fill="white"/>
</svg>
