<svg width="122" height="112" viewBox="0 0 122 112" fill="none" xmlns="http://www.w3.org/2000/svg">
<path d="M70.5063 43.1277C76.7 41.6335 82.9554 45.3504 84.6045 51.5047C86.2535 57.659 82.6946 64.0056 76.5836 65.8084L70.5063 43.1277Z" fill="#292929"/>
<path fill-rule="evenodd" clip-rule="evenodd" d="M76.5836 65.8084L81.9041 85.6649L71.3013 83.7922L50.2358 80.0714C44.1618 78.9984 37.9775 78.6883 31.8266 79.1485L35.2144 91.7917C36.8925 98.0578 33.1742 104.498 26.9086 106.178L20.1522 80.9626C19.4876 81.1216 18.8239 81.2899 18.1612 81.4674C15.0281 82.3065 11.808 80.4474 10.9681 77.3146L7.92861 65.9709C7.52508 64.4663 7.73596 62.863 8.51484 61.514C9.29371 60.1649 10.5767 59.1807 12.0815 58.7778C16.5542 57.5796 20.9046 55.9644 25.0756 53.9534C25.7659 53.6227 26.4525 53.2787 27.1317 52.9247C31.9198 50.4298 36.4215 47.4203 40.557 43.9495L56.9961 30.146L65.1852 23.269L70.5063 43.1277L76.5836 65.8084Z" fill="url(#paint0_linear)"/>
<path opacity="0.25" d="M76.5836 65.8084L81.9041 85.6649L71.3012 83.7922L71.3282 83.6345L56.996 30.146L65.1852 23.269L70.5063 43.1277L76.5836 65.8084Z" fill="black"/>
<path opacity="0.25" d="M20.1521 80.9626C19.4875 81.1216 18.8238 81.2899 18.161 81.4674C15.028 82.3065 11.8079 80.4474 10.968 77.3146L7.92849 65.9709C7.52496 64.4663 7.73584 62.863 8.51471 61.514C9.29359 60.1649 10.5766 59.1807 12.0814 58.7778C16.5541 57.5796 20.9045 55.9644 25.0755 53.9534L31.8265 79.1485C27.893 79.4418 23.9891 80.0484 20.1521 80.9626Z" fill="black"/>
<path d="M90.7016 73.245C90.0658 73.416 89.3974 73.1157 89.1032 72.5266C88.809 71.9376 88.9703 71.2228 89.489 70.8172C96.3232 65.4665 99.3011 56.5514 97.0547 48.1675C94.8082 39.7836 87.7717 33.5518 79.1777 32.3351C78.4205 32.2279 77.8936 31.5272 78.0008 30.77C78.108 30.0128 78.8087 29.4859 79.5659 29.5931C89.2591 30.9655 97.1957 37.9944 99.7296 47.4507C102.263 56.9071 98.9046 66.9626 91.1961 72.9978C91.0497 73.1127 90.8815 73.1968 90.7016 73.245Z" fill="#383838"/>
<path d="M98.3697 82.6842C97.7339 82.8552 97.0656 82.5548 96.7715 81.9657C96.4773 81.3767 96.6386 80.662 97.1573 80.2564C107.8 71.923 112.438 58.0387 108.939 44.9818C105.441 31.9248 94.4824 22.2194 81.0984 20.3241C80.606 20.2577 80.187 19.9326 80.0003 19.4721C79.8136 19.0116 79.888 18.4865 80.1951 18.0959C80.5023 17.7054 80.9952 17.5094 81.4867 17.5823C95.9701 19.633 107.829 30.1355 111.615 44.265C115.401 58.3945 110.382 73.4193 98.8644 82.437C98.7179 82.5519 98.5496 82.636 98.3697 82.6842Z" fill="#4C4C4C"/>
<defs>
<linearGradient id="paint0_linear" x1="-20.5006" y1="83.0303" x2="63.2164" y2="128.292" gradientUnits="userSpaceOnUse">
<stop stop-color="#F1AF37"/>
<stop offset="1" stop-color="#F7941D"/>
</linearGradient>
</defs>
</svg>
