<svg width="114" height="112" viewBox="0 0 114 112" fill="none" xmlns="http://www.w3.org/2000/svg">
<path d="M57.8238 47.6702H27.2746C13.3332 47.6702 2.03174 58.9504 2.03174 72.8656C2.03174 82.9315 7.94638 91.6184 16.4952 95.654C19.9282 97.2751 22.1303 100.712 22.1303 104.503V109.908C22.1303 111.963 24.7911 112.782 25.9499 111.084L31.93 102.33C33.755 99.6594 36.7843 98.061 40.023 98.061H57.8238C71.7652 98.061 83.0667 86.7807 83.0667 72.8656C83.0658 58.9504 71.7643 47.6702 57.8238 47.6702Z" fill="#373737"/>
<path d="M56.3078 0.998123H86.8561C100.797 0.998123 112.099 12.2784 112.099 26.1935C112.099 36.2594 106.185 44.9454 97.6364 48.982C94.2025 50.603 92.0013 54.04 92.0013 57.8306V63.2357C92.0013 65.2899 89.3406 66.1099 88.1808 64.4123L82.2007 55.6572C80.3767 52.9864 77.3474 51.389 74.1077 51.389H56.3078C42.3664 51.389 31.0649 40.1087 31.0649 26.1935C31.0649 12.2784 42.3664 0.998123 56.3078 0.998123V0.998123Z" fill="url(#paint0_linear)"/>
<path opacity="0.25" d="M84.4967 48.1807H66.6959C52.7545 48.1807 41.453 36.8995 41.453 22.9852C41.453 13.8122 46.3651 5.78445 53.7068 1.37809C40.9877 2.67758 31.0649 13.4027 31.0649 26.4411C31.0649 40.3563 42.3664 51.6365 56.3078 51.6365H74.1086C77.3474 51.6365 80.3767 53.2349 82.2007 55.9057L88.1808 64.6598C89.3406 66.3575 92.0013 65.5384 92.0013 63.4833V58.0782C92.0013 56.3966 92.4362 54.785 93.2189 53.3701L92.5888 52.4499C90.7647 49.7781 87.7354 48.1807 84.4967 48.1807V48.1807Z" fill="black"/>
<path d="M26.1413 95.654C17.5925 91.6184 11.6779 82.9315 11.6779 72.8656C11.6779 58.9504 22.9794 47.6702 36.9207 47.6702H27.2746C13.3332 47.6702 2.03174 58.9504 2.03174 72.8656C2.03174 82.9315 7.94543 91.6184 16.4943 95.654C19.9282 97.2751 22.1294 100.712 22.1294 104.503V109.908C22.1294 111.963 24.7901 112.782 25.9499 111.084L31.6173 102.787C31.0639 99.7 29.0466 97.0254 26.1413 95.654V95.654Z" fill="#4C4C4C"/>
<path d="M30.1219 73.347C30.1219 75.9157 28.0364 77.9983 25.4628 77.9983C22.8893 77.9983 20.8027 75.9157 20.8027 73.347C20.8027 70.7783 22.8893 68.6957 25.4628 68.6957C28.0364 68.6957 30.1219 70.7783 30.1219 73.347Z" fill="#4C4C4C"/>
<path d="M47.2093 73.347C47.2093 75.9157 45.1228 77.9983 42.5492 77.9983C39.9757 77.9983 37.8892 75.9157 37.8892 73.347C37.8892 70.7783 39.9757 68.6957 42.5492 68.6957C45.1228 68.6957 47.2093 70.7783 47.2093 73.347Z" fill="#4C4C4C"/>
<path d="M64.2957 73.347C64.2957 75.9157 62.2092 77.9983 59.6357 77.9983C57.0621 77.9983 54.9756 75.9157 54.9756 73.347C54.9756 70.7783 57.0621 68.6957 59.6357 68.6957C62.2092 68.6957 64.2957 70.7783 64.2957 73.347Z" fill="#4C4C4C"/>
<path opacity="0.25" d="M93.3287 26.6749C93.3287 29.2437 91.2422 31.3262 88.6686 31.3262C86.0951 31.3262 84.0085 29.2437 84.0085 26.6749C84.0085 24.1062 86.0951 22.0236 88.6686 22.0236C91.2422 22.0236 93.3287 24.1062 93.3287 26.6749Z" fill="black"/>
<path opacity="0.25" d="M76.2413 26.6749C76.2413 29.2437 74.1558 31.3262 71.5822 31.3262C69.0086 31.3262 66.9221 29.2437 66.9221 26.6749C66.9221 24.1062 69.0086 22.0236 71.5822 22.0236C74.1558 22.0236 76.2413 24.1062 76.2413 26.6749Z" fill="black"/>
<path opacity="0.25" d="M59.1551 26.6749C59.1551 29.2437 57.0686 31.3262 54.495 31.3262C51.9215 31.3262 49.835 29.2437 49.835 26.6749C49.835 24.1062 51.9215 22.0236 54.495 22.0236C57.0686 22.0236 59.1551 24.1062 59.1551 26.6749Z" fill="black"/>
<defs>
<linearGradient id="paint0_linear" x1="-7.86081" y1="33.584" x2="53.9717" y2="111.473" gradientUnits="userSpaceOnUse">
<stop stop-color="#F1AF37"/>
<stop offset="1" stop-color="#F7941D"/>
</linearGradient>
</defs>
</svg>
