<svg width="112" height="112" viewBox="0 0 112 112" fill="none" xmlns="http://www.w3.org/2000/svg">
<path d="M78.7586 48.4138V18.069V12H27.1724V24.1379V48.4138H78.7586Z" fill="#292929"/>
<path d="M26.3303 48.4138H27.1724V24.1379C23.8206 24.1379 21.1034 26.8551 21.1034 30.2069V33.2414H18.069C14.7172 33.2414 12 35.9586 12 39.3104V100L20.3281 53.583C20.7735 50.6118 23.3259 48.4137 26.3303 48.4138Z" fill="#B97420"/>
<path d="M90.8966 48.4138V39.3103C90.8966 35.9585 88.1794 33.2414 84.8276 33.2414V48.4138H90.8966Z" fill="#B97420"/>
<path d="M91.6719 94.8308L98.9546 55.3825C99.2165 53.6353 98.7041 51.8607 97.5511 50.5221C96.3982 49.1835 94.7191 48.4137 92.9524 48.4138H26.3303C23.3259 48.4136 20.7735 50.6118 20.3281 53.583L12 100H85.6697C88.6741 100 91.2264 97.802 91.6719 94.8308Z" fill="url(#paint0_linear)"/>
<path d="M78.7587 18.069H33.2415V48.4138H78.7587H84.8277V33.2414V18.069H78.7587Z" fill="#4C4C4C"/>
<path d="M78.7587 28.6897H39.3105C38.4725 28.6897 37.7932 29.369 37.7932 30.2069C37.7932 31.0449 38.4725 31.7241 39.3105 31.7241H78.7587C79.5967 31.7241 80.276 31.0449 80.276 30.2069C80.276 29.369 79.5967 28.6897 78.7587 28.6897Z" fill="#787878"/>
<path d="M39.3105 22.6207C38.4725 22.6207 37.7932 23.3 37.7932 24.1379C37.7932 24.9759 38.4725 25.6552 39.3105 25.6552H78.7587C79.5967 25.6552 80.276 24.9759 80.276 24.1379C80.276 23.3 79.5967 22.6207 78.7587 22.6207H39.3105Z" fill="#787878"/>
<path d="M78.7587 34.7586H39.3105C38.4725 34.7586 37.7932 35.4379 37.7932 36.2759C37.7932 37.1138 38.4725 37.7931 39.3105 37.7931H78.7587C79.5967 37.7931 80.276 37.1138 80.276 36.2759C80.276 35.4379 79.5967 34.7586 78.7587 34.7586Z" fill="#787878"/>
<path d="M78.7587 40.8276H39.3105C38.4725 40.8276 37.7932 41.5069 37.7932 42.3448C37.7932 43.1828 38.4725 43.8621 39.3105 43.8621H78.7587C79.5967 43.8621 80.276 43.1828 80.276 42.3448C80.276 41.5069 79.5967 40.8276 78.7587 40.8276Z" fill="#787878"/>
<defs>
<linearGradient id="paint0_linear" x1="-29.802" y1="74.5446" x2="14.8622" y2="149.889" gradientUnits="userSpaceOnUse">
<stop stop-color="#F1AF37"/>
<stop offset="1" stop-color="#F7941D"/>
</linearGradient>
</defs>
</svg>
