<svg width="112" height="112" viewBox="0 0 112 112" fill="none" xmlns="http://www.w3.org/2000/svg">
<path fill-rule="evenodd" clip-rule="evenodd" d="M71.3341 74.0409L78.3842 76.5474V84.4204L71.3334 86.9275L70.8643 88.0599C70.1995 89.6646 69.7376 90.7795 68.9599 92.6573L72.1723 99.4155L66.6052 104.982L59.8473 101.77L54.1172 104.143L51.6108 111.194H43.738L41.23 104.143L35.4999 101.77L28.7429 104.982L23.1759 99.4155L26.3882 92.656C26.1021 91.9651 25.8588 91.3775 25.6324 90.8308C25.1094 89.5675 24.6767 88.5225 24.0147 86.9261L16.9648 84.4197V76.5467L24.0147 74.0403L24.4817 72.913C25.1476 71.3055 25.6097 70.1902 26.3882 68.3104L23.1759 61.5523L28.742 55.9855L35.4999 59.1978L41.2316 56.8243L43.738 49.7742H51.6108L54.1179 56.825L59.848 59.1985L66.6059 55.9861L72.1729 61.5529L68.9606 68.3111C69.2468 69.0021 69.4902 69.5899 69.7166 70.1367C70.2396 71.3998 70.6722 72.4448 71.3341 74.0409ZM33.2229 80.4839C33.2229 88.4653 39.6931 94.9355 47.6745 94.9355C55.6559 94.9355 62.1261 88.4653 62.1261 80.4839C62.1261 72.5025 55.6559 66.0323 47.6745 66.0323C39.6931 66.0323 33.2229 72.5025 33.2229 80.4839Z" fill="#3D3D3D"/>
<path fill-rule="evenodd" clip-rule="evenodd" d="M101.724 30.6861L108.774 33.1926V41.0655L101.723 43.5726L99.3498 49.3025L102.562 56.0606L96.9953 61.6275L90.2374 58.4151L84.5074 60.7886L82.0009 67.8387H74.1279L71.6208 60.7886L65.8907 58.4151L59.1328 61.6275L53.566 56.0606L56.7783 49.3023L54.4049 43.5724L47.3547 41.066C47.3547 39.0999 48.3274 38.0674 49.3 37.0349C50.2725 36.0026 51.2449 34.9702 51.2449 33.0047L54.4049 30.6854L56.7783 24.9556L53.566 18.1974L59.1328 12.6306L65.8907 15.8429L71.6215 13.4695L74.1279 6.41936H82.0009L84.508 13.4695L90.2381 15.8429L96.996 12.6306L102.563 18.1974L99.3505 24.9563L101.724 30.6861ZM63.6128 37.129C63.6128 45.1104 70.083 51.5806 78.0644 51.5806C86.0458 51.5806 92.516 45.1104 92.516 37.129C92.516 29.1476 86.0458 22.6774 78.0644 22.6774C70.083 22.6774 63.6128 29.1476 63.6128 37.129Z" fill="#4C4C4C"/>
<path fill-rule="evenodd" clip-rule="evenodd" d="M58.3692 25.2667L65.4194 27.7732V35.6462L58.3685 38.1533L55.9951 43.8831L59.2074 50.6413L53.6406 56.2081L46.8827 52.9958L41.1526 55.3692L38.6462 62.4194H30.7732L28.2661 55.3692L22.536 52.9958L15.7781 56.2081L10.2113 50.6413L13.4236 43.8825L11.0501 38.1526L4 35.6462V27.7732L11.0501 25.2661L13.4236 19.5362L10.2113 12.7781L15.7781 7.21126L22.536 10.4236L28.2667 8.05013L30.7732 1H38.6462L41.1533 8.05013L46.8834 10.4236L53.6413 7.21126L59.2081 12.7781L55.9958 19.5362L58.3692 25.2667ZM20.2581 31.7097C20.2581 39.6911 26.7283 46.1613 34.7097 46.1613C42.6911 46.1613 49.1613 39.6911 49.1613 31.7097C49.1613 23.7283 42.6911 17.2581 34.7097 17.2581C26.7283 17.2581 20.2581 23.7283 20.2581 31.7097Z" fill="url(#paint0_linear)"/>
<defs>
<linearGradient id="paint0_linear" x1="-25.5036" y1="32.1117" x2="35.1117" y2="92.727" gradientUnits="userSpaceOnUse">
<stop stop-color="#F1AF37"/>
<stop offset="1" stop-color="#F7941D"/>
</linearGradient>
</defs>
</svg>
