<svg width="126" height="112" viewBox="0 0 126 112" fill="none" xmlns="http://www.w3.org/2000/svg">
<path fill-rule="evenodd" clip-rule="evenodd" d="M77.8475 96.7563L76.5913 19.8792C76.5913 17.8694 74.8327 16.1108 72.8229 16.1108H53.7293C51.5937 16.1108 49.9609 17.7439 49.9609 19.8792V96.7563H77.8475ZM41.4189 96.7563V68.9952C41.4189 66.8597 39.7859 65.2269 37.6505 65.2269H18.5567C16.4211 65.2269 14.7883 66.8599 14.7883 68.9952V96.7563H41.4189ZM111.764 48.2686V96.7563H85.1335V48.2686C85.1335 46.1333 86.7663 44.5002 88.9019 44.5002H107.995C110.131 44.5002 111.764 46.133 111.764 48.2686Z" fill="url(#paint0_linear)"/>
<path d="M115.784 96.3796H111.764H85.1332H77.8475H49.9608H41.4188H14.7882H10.7684C8.63305 96.3796 7 98.0126 7 100.148C7 102.284 8.63305 103.917 10.7684 103.917H115.783C117.919 103.917 119.552 102.284 119.552 100.148C119.552 98.0129 117.919 96.3796 115.784 96.3796Z" fill="#373737"/>
<defs>
<linearGradient id="paint0_linear" x1="-31.7951" y1="56.9615" x2="46.4604" y2="151.063" gradientUnits="userSpaceOnUse">
<stop stop-color="#F1AF37"/>
<stop offset="1" stop-color="#F7941D"/>
</linearGradient>
</defs>
</svg>
