<svg width="109" height="112" viewBox="0 0 109 112" fill="none" xmlns="http://www.w3.org/2000/svg">
<path d="M87.2604 90.0618V102.563C87.2604 106.075 84.408 108.922 80.8901 108.922H9.83712C6.31922 108.922 3.46753 106.075 3.46753 102.563V90.0618C3.46753 88.0035 4.44777 86.1738 5.96862 85.0114C7.04029 84.191 8.38147 83.7038 9.83712 83.7038H80.8901C84.408 83.7038 87.2604 86.5507 87.2604 90.0618Z" fill="url(#paint0_linear)"/>
<path d="M94.6022 41.3887V70.6911C94.6022 73.7213 92.1432 76.1763 89.1087 76.1763H35.6858C32.6497 76.1763 30.1899 73.7213 30.1899 70.6911V41.3887C30.1899 38.3601 32.6497 35.9059 35.6858 35.9059H89.1087C92.1432 35.9059 94.6022 38.3601 94.6022 41.3887Z" fill="#4C4C4C"/>
<path d="M75.6716 9.99164V23.167C75.6716 25.8663 73.4782 28.0571 70.772 28.0571H20.3193C17.6123 28.0571 15.4197 25.8663 15.4197 23.167V9.99164C15.4197 8.14685 16.4421 6.54169 17.955 5.70856C18.6561 5.32056 19.4615 5.10156 20.3193 5.10156H70.772C73.4782 5.10156 75.6716 7.29071 75.6716 9.99164Z" fill="#3D3D3D"/>
<path opacity="0.25" d="M86.7038 41.7228H45.5034C44.6281 41.7228 43.9189 42.4305 43.9189 43.3041C43.9189 44.1777 44.6281 44.8855 45.5034 44.8855H86.7038C87.5783 44.8855 88.2883 44.1777 88.2883 43.3041C88.2883 42.4305 87.5791 41.7228 86.7038 41.7228Z" fill="black"/>
<path opacity="0.25" d="M86.7038 50.2136H45.5034C44.6281 50.2136 43.9189 50.9213 43.9189 51.7949C43.9189 52.6685 44.6281 53.3771 45.5034 53.3771H86.7038C87.5783 53.3771 88.2883 52.6685 88.2883 51.7949C88.2883 50.9213 87.5791 50.2136 86.7038 50.2136Z" fill="black"/>
<path opacity="0.25" d="M86.7038 58.7043H45.5034C44.6281 58.7043 43.9189 59.4121 43.9189 60.2857C43.9189 61.1593 44.6281 61.8679 45.5034 61.8679H86.7038C87.5783 61.8679 88.2883 61.1593 88.2883 60.2857C88.2883 59.4121 87.5791 58.7043 86.7038 58.7043Z" fill="black"/>
<path opacity="0.25" d="M86.7038 67.1951H45.5034C44.6281 67.1951 43.9189 67.9029 43.9189 68.7765C43.9189 69.6501 44.6281 70.3586 45.5034 70.3586H86.7038C87.5783 70.3586 88.2883 69.6501 88.2883 68.7765C88.2883 67.9029 87.5791 67.1951 86.7038 67.1951Z" fill="black"/>
<path d="M26.6141 56.0955C26.6141 55.2211 25.9041 54.5133 25.0288 54.5133H10.0557C7.91314 54.5133 6.1689 52.7733 6.1689 50.6349V22.3267C6.1689 20.1876 7.91314 18.4475 10.0557 18.4475C10.931 18.4475 11.6401 17.7397 11.6401 16.8662C11.6401 15.9926 10.931 15.284 10.0557 15.284C6.16492 15.284 3 18.4435 3 22.3267V50.6349C3 54.5173 6.16492 57.6768 10.0557 57.6768H25.0296C25.9041 57.6768 26.6141 56.9683 26.6141 56.0955Z" fill="#3D3D3D"/>
<path opacity="0.25" d="M24.1656 22.1125H66.9258C67.8011 22.1125 68.5102 21.4039 68.5102 20.5303C68.5102 19.6567 67.8011 18.949 66.9258 18.949H24.1656C23.2903 18.949 22.5803 19.6567 22.5803 20.5303C22.5803 21.4039 23.2903 22.1125 24.1656 22.1125Z" fill="black"/>
<path opacity="0.25" d="M24.1656 14.2089H66.9258C67.8011 14.2089 68.5102 13.5011 68.5102 12.6275C68.5102 11.7539 67.8011 11.0461 66.9258 11.0461H24.1656C23.2903 11.0461 22.5803 11.7539 22.5803 12.6275C22.5803 13.5011 23.2903 14.2089 24.1656 14.2089Z" fill="black"/>
<path opacity="0.25" d="M64.0453 98.6827H11.9978C11.1225 98.6827 10.4133 99.3904 10.4133 100.264C10.4133 101.138 11.1225 101.846 11.9978 101.846H64.0445C64.9198 101.846 65.6289 101.138 65.6289 100.264C65.6289 99.3904 64.9198 98.6827 64.0453 98.6827Z" fill="black"/>
<path opacity="0.25" d="M64.0453 90.7798H11.9978C11.1225 90.7798 10.4133 91.4876 10.4133 92.3612C10.4133 93.2348 11.1225 93.9426 11.9978 93.9426H64.0445C64.9198 93.9426 65.6289 93.2348 65.6289 92.3612C65.6289 91.4876 64.9198 90.7798 64.0453 90.7798Z" fill="black"/>
<path d="M100.436 51.837C99.5606 51.837 98.8515 52.5447 98.8515 53.4183C98.8515 54.2919 99.5606 55.0005 100.436 55.0005C102.42 55.0005 104.034 56.6112 104.034 58.5909V91.1401C104.034 93.1198 102.419 94.7305 100.436 94.7305H93.0932C92.2179 94.7305 91.5088 95.4382 91.5088 96.3118C91.5088 97.1854 92.2179 97.8932 93.0932 97.8932H100.436C104.168 97.8932 107.203 94.8638 107.203 91.1401V58.5909C107.203 54.8672 104.168 51.837 100.436 51.837Z" fill="#3D3D3D"/>
<path opacity="0.25" d="M80.3724 88.5336C79.6466 88.0456 78.6616 88.2376 78.1726 88.962L72.3603 97.5758L70.4356 94.7233C69.9467 93.9981 68.9617 93.8069 68.2358 94.2948C67.51 94.7828 67.3176 95.7659 67.8065 96.4896L71.0462 101.291C71.3404 101.727 71.8333 101.989 72.3603 101.989C72.8874 101.989 73.3803 101.727 73.6745 101.291L80.8017 90.7291C81.2899 90.0046 81.0983 89.0215 80.3724 88.5336Z" fill="black"/>
<path opacity="0.25" d="M38.6214 34.2833V77.2583L38.5691 77.6514H34.2001C30.9305 77.6514 28.2815 75.0076 28.2815 71.7443V40.1879C28.2815 36.9263 30.9305 34.2833 34.2001 34.2833L38.6214 34.2833Z" fill="#323232"/>
<defs>
<linearGradient id="paint0_linear" x1="-36.7835" y1="96.4781" x2="-23.0469" y2="142.121" gradientUnits="userSpaceOnUse">
<stop stop-color="#F1AF37"/>
<stop offset="1" stop-color="#F7941D"/>
</linearGradient>
</defs>
</svg>
