<svg width="72" height="72" viewBox="0 0 72 72" fill="none" xmlns="http://www.w3.org/2000/svg">
<path d="M55.125 14.9062V65.6719C55.125 69.1736 52.2986 72 48.7969 72H6.32812C2.82642 72 0 69.1736 0 65.6719V14.9062C0 11.4045 2.82642 8.4375 6.32812 8.4375H48.7969C52.2986 8.4375 55.125 11.4045 55.125 14.9062Z" fill="url(#paint0_linear)"/>
<path d="M50.9062 14.9062V65.6719C50.9062 66.8533 49.9783 67.7812 48.7969 67.7812H6.32812C5.14673 67.7812 4.21875 66.8533 4.21875 65.6719V14.9062C4.21875 13.7249 5.14673 12.7969 6.32812 12.7969H48.7969C49.9783 12.7969 50.9062 13.7249 50.9062 14.9062Z" fill="#383838"/>
<path d="M40.3594 4.21875H33.5108C32.6673 1.77173 30.3048 0 27.5625 0C24.8202 0 22.317 1.77173 21.4736 4.21875H14.7656C13.5842 4.21875 12.6562 5.14673 12.6562 6.32812V10.6875C12.6562 14.1892 15.4827 17.0156 18.9844 17.0156H36C39.5017 17.0156 42.4688 14.1892 42.4688 10.6875V6.32812C42.4688 5.14673 41.5408 4.21875 40.3594 4.21875Z" fill="#292929"/>
<path d="M13.2742 48.0382L9.05544 43.8195C8.23152 42.9956 8.23152 41.6606 9.05544 40.8367C9.87936 40.0128 11.2143 40.0128 12.0382 40.8367L14.7655 43.5641L21.7117 36.6179C22.5356 35.794 23.8706 35.794 24.6945 36.6179C25.5184 37.4419 25.5184 38.7768 24.6945 39.6007L16.257 48.0382C15.4329 48.8623 14.0981 48.8623 13.2742 48.0382Z" fill="url(#paint1_linear)"/>
<path d="M13.2742 62.8039L9.05544 58.5851C8.23152 57.7612 8.23152 56.4262 9.05544 55.6023C9.87936 54.7784 11.2143 54.7784 12.0382 55.6023L14.7655 58.3297L21.7117 51.3836C22.5356 50.5596 23.8706 50.5596 24.6945 51.3836C25.5184 52.2075 25.5184 53.5424 24.6945 54.3664L16.257 62.8039C15.2455 63.8154 14.2856 63.8154 13.2742 62.8039Z" fill="url(#paint2_linear)"/>
<path d="M17.7485 27.5625L20.4759 24.8351C21.2998 24.0112 21.2998 22.6762 20.4759 21.8523C19.652 21.0284 18.317 21.0284 17.4931 21.8523L14.7657 24.5797L12.0382 21.8523C11.2143 21.0284 9.87936 21.0284 9.05544 21.8523C8.23152 22.6762 8.23152 24.0112 9.05544 24.8351L11.7829 27.5625L9.05544 30.29C8.23152 31.1139 8.23152 32.4488 9.05544 33.2728C9.8795 34.0968 11.2142 34.0968 12.0382 33.2728L14.7657 30.5453L17.4931 33.2728C18.3171 34.0968 19.6518 34.0968 20.4759 33.2728C21.2998 32.4488 21.2998 31.1139 20.4759 30.29L17.7485 27.5625Z" fill="#787878"/>
<path d="M44.5781 29.6719H31.7812C30.6153 29.6719 29.6719 28.7284 29.6719 27.5625C29.6719 26.3966 30.6153 25.4531 31.7812 25.4531H44.5781C45.744 25.4531 46.6875 26.3966 46.6875 27.5625C46.6875 28.7284 45.744 29.6719 44.5781 29.6719Z" fill="#787878"/>
<path d="M44.5781 44.4375H31.7812C30.6153 44.4375 29.6719 43.494 29.6719 42.3281C29.6719 41.1622 30.6153 40.2188 31.7812 40.2188H44.5781C45.744 40.2188 46.6875 41.1622 46.6875 42.3281C46.6875 43.494 45.744 44.4375 44.5781 44.4375Z" fill="#787878"/>
<path d="M44.5781 59.2031H31.7812C30.6153 59.2031 29.6719 58.2597 29.6719 57.0938C29.6719 55.9278 30.6153 54.9844 31.7812 54.9844H44.5781C45.744 54.9844 46.6875 55.9278 46.6875 57.0938C46.6875 58.2597 45.744 59.2031 44.5781 59.2031Z" fill="#787878"/>
<path d="M72 19.125V25.4531L67.7812 29.6719H63.5625L59.3438 25.4531V19.125C59.3438 15.6233 62.1702 12.7969 65.6719 12.7969C69.1736 12.7969 72 15.6233 72 19.125Z" fill="#383838"/>
<path d="M72 19.125V25.4531L67.7812 29.6719H65.6719V12.7969C69.1736 12.7969 72 15.6233 72 19.125Z" fill="#292929"/>
<path d="M72 25.4531V52.875L69.8906 54.9844H61.4531L59.3438 52.875V25.4531H72Z" fill="url(#paint3_linear)"/>
<path opacity="0.25" d="M72 25.4531V52.875L69.8906 54.9844H65.6719V25.4531H72Z" fill="black"/>
<path d="M71.3671 51.3986C69.8061 49.8377 67.7389 49.0361 65.6719 49.0361C63.6049 49.0361 61.5377 49.8377 59.9767 51.3986C59.3861 51.9471 59.2171 52.7907 59.4705 53.5499L63.6892 66.3468C63.9424 67.1905 64.7439 67.7813 65.6719 67.7813C66.5999 67.7813 67.4014 67.1907 67.6546 66.3468L71.8733 53.5499C72.1267 52.7905 71.9578 51.9471 71.3671 51.3986Z" fill="#787878"/>
<path opacity="0.25" d="M71.367 51.3986C71.9577 51.9471 72.1267 52.7907 71.8733 53.5499L67.6545 66.3468C67.4014 67.1905 66.5999 67.7813 65.6719 67.7813V49.0361C67.7391 49.0361 69.8061 49.8377 71.367 51.3986Z" fill="black"/>
<defs>
<linearGradient id="paint0_linear" x1="-26.48" y1="40.6348" x2="35.6195" y2="94.491" gradientUnits="userSpaceOnUse">
<stop stop-color="#F1AF37"/>
<stop offset="1" stop-color="#F7941D"/>
</linearGradient>
<linearGradient id="paint1_linear" x1="0.331406" y1="42.411" x2="12.3224" y2="58.3989" gradientUnits="userSpaceOnUse">
<stop stop-color="#F1AF37"/>
<stop offset="1" stop-color="#F7941D"/>
</linearGradient>
<linearGradient id="paint2_linear" x1="0.331406" y1="57.2478" x2="12.4925" y2="73.2843" gradientUnits="userSpaceOnUse">
<stop stop-color="#F1AF37"/>
<stop offset="1" stop-color="#F7941D"/>
</linearGradient>
<linearGradient id="paint3_linear" x1="53.2642" y1="40.412" x2="74.3689" y2="49.4569" gradientUnits="userSpaceOnUse">
<stop stop-color="#F1AF37"/>
<stop offset="1" stop-color="#F7941D"/>
</linearGradient>
</defs>
</svg>
