<svg width="72" height="72" viewBox="0 0 72 72" fill="none" xmlns="http://www.w3.org/2000/svg">
<rect x="4" y="4" width="64" height="64" fill="url(#paint0_linear)"/>
<rect opacity="0.25" x="35.9988" y="4" width="32.0013" height="64" fill="black"/>
<path d="M55.9835 22.0137H52.5804L59.9984 14.596L57.3415 11.9391L49.9236 19.357V15.954H46.1663V25.7711H55.9835V22.0137Z" fill="#292929"/>
<path d="M16.0129 49.8647H19.416L11.998 57.2827L14.6548 59.9394L22.0727 52.5215V55.9246H25.83V46.1073H16.0129V49.8647Z" fill="#292929"/>
<path d="M55.9835 49.8647V46.1073H46.1663V55.9246H49.9236V52.5214L57.3415 59.9394L59.9984 57.2827L52.5804 49.8647H55.9835Z" fill="#292929"/>
<path d="M22.0727 19.357L14.6548 11.9391L11.998 14.596L19.416 22.0137H16.0129V25.7711H25.83V15.954H22.0727V19.357Z" fill="#292929"/>
<path d="M36.0002 26.5649C30.7976 26.5648 26.5651 30.7974 26.5652 35.9999C26.5652 41.2024 30.7977 45.4349 36.0002 45.4349C38.6016 45.4349 40.9603 44.3767 42.6687 42.6683C44.3772 40.9598 45.4353 38.6011 45.4353 35.9998C45.4353 30.7974 41.2027 26.5648 36.0002 26.5649Z" fill="#292929"/>
<path d="M36 45.4351C38.6014 45.4351 40.96 44.3768 42.6685 42.6684C44.377 40.9601 45.4351 38.6012 45.4351 35.9999C45.4353 30.7974 41.2026 26.5648 36.0001 26.5649L36 45.4351Z" fill="#292929"/>
<defs>
<linearGradient id="paint0_linear" x1="-26.7432" y1="36.4189" x2="36.4189" y2="99.5811" gradientUnits="userSpaceOnUse">
<stop stop-color="#F1AF37"/>
<stop offset="1" stop-color="#F7941D"/>
</linearGradient>
</defs>
</svg>
