<svg width="72" height="72" viewBox="0 0 72 72" fill="none" xmlns="http://www.w3.org/2000/svg">
<path d="M64.5516 17.3793H7.44818C4.7058 17.3793 2.48267 19.6024 2.48267 22.3448V57.1034C2.48267 59.8458 4.7058 62.0689 7.44818 62.0689H64.5516C67.294 62.0689 69.5172 59.8458 69.5172 57.1034V22.3448C69.5172 19.6024 67.294 17.3793 64.5516 17.3793Z" fill="url(#paint0_linear)"/>
<path d="M7.44828 62.069H0V67.0345C0 69.7769 2.22314 72 4.96552 72H67.0345C69.7769 72 72 69.7769 72 67.0345V62.069H7.44828Z" fill="url(#paint1_linear)"/>
<path opacity="0.25" d="M7.44828 62.069H0V67.0345C0 69.7769 2.22314 72 4.96552 72H67.0345C69.7769 72 72 69.7769 72 67.0345V62.069H7.44828Z" fill="black"/>
<path d="M29.7932 64.5517C29.7932 65.9229 30.9048 67.0345 32.276 67.0345H39.7242C41.0954 67.0345 42.207 65.9229 42.207 64.5517V62.069H29.7932V64.5517Z" fill="#4C4C4C"/>
<path d="M7.44824 22.3448H64.5517V57.1035H7.44824V22.3448Z" fill="#4C4C4C"/>
<path d="M49.6553 0H22.3449C19.6025 0 17.3794 2.22314 17.3794 4.96552V18.6207C17.3794 21.3631 19.6025 23.5862 22.3449 23.5862H26.069V32.2759L33.5173 23.5862H49.6553C52.3976 23.5862 54.6208 21.3631 54.6208 18.6207V4.96552C54.6208 2.22314 52.3976 0 49.6553 0Z" fill="#393939"/>
<path d="M13.6553 32.2758C13.6553 32.9614 14.2111 33.5172 14.8967 33.5172H17.3794C18.065 33.5172 18.6208 32.9614 18.6208 32.2758C18.6208 31.5902 18.065 31.0344 17.3794 31.0344H14.8967C14.2111 31.0344 13.6553 31.5902 13.6553 32.2758Z" fill="#787878"/>
<path d="M17.3794 36H14.8967C14.2111 36 13.6553 36.5558 13.6553 37.2414C13.6553 37.927 14.2111 38.4828 14.8967 38.4828H17.3794C18.065 38.4828 18.6208 37.927 18.6208 37.2414C18.6208 36.5558 18.065 36 17.3794 36Z" fill="#787878"/>
<path d="M17.3794 40.9655H14.8967C14.2111 40.9655 13.6553 41.5212 13.6553 42.2068C13.6553 42.8924 14.2111 43.4482 14.8967 43.4482H17.3794C18.065 43.4482 18.6208 42.8924 18.6208 42.2068C18.6208 41.5212 18.065 40.9655 17.3794 40.9655Z" fill="#787878"/>
<path d="M17.3794 45.931H14.8967C14.2111 45.931 13.6553 46.4868 13.6553 47.1724C13.6553 47.858 14.2111 48.4138 14.8967 48.4138H17.3794C18.065 48.4138 18.6208 47.858 18.6208 47.1724C18.6208 46.4868 18.065 45.931 17.3794 45.931Z" fill="#787878"/>
<path d="M17.3794 50.8965H14.8967C14.2111 50.8965 13.6553 51.4523 13.6553 52.1379C13.6553 52.8235 14.2111 53.3792 14.8967 53.3792H17.3794C18.065 53.3792 18.6208 52.8235 18.6208 52.1379C18.6208 51.4523 18.065 50.8965 17.3794 50.8965Z" fill="#787878"/>
<path d="M33.5173 33.5172H57.1035C57.7891 33.5172 58.3448 32.9614 58.3448 32.2758C58.3448 31.5902 57.7891 31.0344 57.1035 31.0344H33.5173C32.8317 31.0344 32.2759 31.5902 32.2759 32.2758C32.2759 32.9614 32.8317 33.5172 33.5173 33.5172Z" fill="#787878"/>
<path d="M32.2758 38.4828H52.1379C52.8235 38.4828 53.3793 37.927 53.3793 37.2414C53.3793 36.5558 52.8235 36 52.1379 36H32.2758C31.5902 36 31.0344 36.5558 31.0344 37.2414C31.0344 37.927 31.5902 38.4828 32.2758 38.4828Z" fill="#787878"/>
<path d="M22.3449 43.4483H37.2414C37.927 43.4483 38.4828 42.8926 38.4828 42.207C38.4828 41.5214 37.927 40.9656 37.2414 40.9656H22.3449C21.6593 40.9656 21.1035 41.5214 21.1035 42.207C21.1035 42.8926 21.6593 43.4483 22.3449 43.4483Z" fill="#787878"/>
<path d="M22.3449 48.4138H37.2414C37.927 48.4138 38.4828 47.858 38.4828 47.1724C38.4828 46.4868 37.927 45.931 37.2414 45.931H22.3449C21.6593 45.931 21.1035 46.4868 21.1035 47.1724C21.1035 47.858 21.6593 48.4138 22.3449 48.4138Z" fill="#787878"/>
<path d="M22.3449 53.3794H37.2414C37.927 53.3794 38.4828 52.8236 38.4828 52.138C38.4828 51.4524 37.927 50.8966 37.2414 50.8966H22.3449C21.6593 50.8966 21.1035 51.4524 21.1035 52.138C21.1035 52.8236 21.6593 53.3794 22.3449 53.3794Z" fill="#787878"/>
<path d="M21.6559 12.2052L29.1041 17.1707C29.4731 17.4169 29.9454 17.4475 30.3431 17.251C30.7407 17.0545 31.0034 16.6608 31.032 16.2181C31.0607 15.7755 30.8511 15.3512 30.4821 15.1051L24.8127 11.3263L30.348 8.56548C30.9616 8.25902 31.2106 7.51316 30.9041 6.89955C30.5977 6.28595 29.8518 6.03695 29.2382 6.34342L21.7899 10.0676C21.3937 10.2652 21.1328 10.659 21.1052 11.1009C21.0776 11.5428 21.2874 11.9659 21.6559 12.2114V12.2052Z" fill="#787878"/>
<path d="M41.6521 8.56548L47.1874 11.3325L41.518 15.1113C41.1491 15.3574 40.9394 15.7817 40.9681 16.2244C40.9967 16.667 41.2594 17.0607 41.657 17.2572C42.0547 17.4537 42.527 17.4231 42.896 17.1769L50.3443 12.2114C50.7127 11.9659 50.9225 11.5428 50.8949 11.1009C50.8673 10.659 50.6064 10.2652 50.2102 10.0676L42.7619 6.34342C42.1483 6.03695 41.4024 6.28595 41.096 6.89955C40.7895 7.51316 41.0385 8.25902 41.6521 8.56548Z" fill="#787878"/>
<path d="M33.0926 19.7876C33.4023 19.8998 33.7438 19.8843 34.042 19.7446C34.3403 19.6049 34.5708 19.3524 34.6828 19.0428L39.6483 5.38758C39.8192 4.96668 39.7465 4.48609 39.4588 4.13455C39.1711 3.78302 38.7144 3.61667 38.268 3.70086C37.8217 3.78504 37.4569 4.10631 37.317 4.53848L32.3515 18.1937C32.238 18.5033 32.2523 18.8453 32.3914 19.1444C32.5304 19.4434 32.7827 19.6748 33.0926 19.7876Z" fill="#787878"/>
<path d="M22.3449 38.4828H27.3104C27.996 38.4828 28.5518 37.927 28.5518 37.2414C28.5518 36.5558 27.996 36 27.3104 36H22.3449C21.6593 36 21.1035 36.5558 21.1035 37.2414C21.1035 37.927 21.6593 38.4828 22.3449 38.4828Z" fill="#787878"/>
<path d="M53.3794 42.207C53.3794 41.5214 52.8236 40.9656 52.138 40.9656H42.207C41.5214 40.9656 40.9656 41.5214 40.9656 42.207C40.9656 42.8926 41.5214 43.4483 42.207 43.4483H52.138C52.8236 43.4483 53.3794 42.8926 53.3794 42.207Z" fill="#787878"/>
<path d="M44.6897 45.931H42.207C41.5214 45.931 40.9656 46.4868 40.9656 47.1724C40.9656 47.858 41.5214 48.4138 42.207 48.4138H44.6897C45.3753 48.4138 45.9311 47.858 45.9311 47.1724C45.9311 46.4868 45.3753 45.931 44.6897 45.931Z" fill="#787878"/>
<path d="M44.6897 50.8966H42.207C41.5214 50.8966 40.9656 51.4524 40.9656 52.138C40.9656 52.8236 41.5214 53.3794 42.207 53.3794H44.6897C45.3753 53.3794 45.9311 52.8236 45.9311 52.138C45.9311 51.4524 45.3753 50.8966 44.6897 50.8966Z" fill="#787878"/>
<defs>
<linearGradient id="paint0_linear" x1="-29.7182" y1="40.0166" x2="10.9937" y2="101.085" gradientUnits="userSpaceOnUse">
<stop stop-color="#F1AF37"/>
<stop offset="1" stop-color="#F7941D"/>
</linearGradient>
<linearGradient id="paint1_linear" x1="-34.5861" y1="67.0995" x2="-31.9329" y2="86.3356" gradientUnits="userSpaceOnUse">
<stop stop-color="#F1AF37"/>
<stop offset="1" stop-color="#F7941D"/>
</linearGradient>
</defs>
</svg>
