<svg width="72" height="72" viewBox="0 0 72 72" fill="none" xmlns="http://www.w3.org/2000/svg">
<path d="M52.0394 13.7425H56.7159L57.7292 7.58519C57.8851 6.64996 57.5733 5.71457 57.0277 5.09113C56.4041 4.38967 55.5468 4 54.6895 4H18.291C17.3558 4 16.4984 4.38967 15.9528 5.09113C15.3292 5.7926 15.0955 6.72783 15.2514 7.58519L16.2646 13.7425H20.9411H52.0394Z" fill="url(#paint0_linear)"/>
<path d="M63.7307 23.2513L64.7439 16.9381C64.8998 16.0029 64.5881 15.0675 64.0425 14.444C63.4189 13.7426 62.5615 13.3529 61.7043 13.3529H56.7161H52.0396H20.9409H16.2645H16.1866H11.3542C10.419 13.3529 9.56163 13.7426 9.01606 14.444C8.39247 15.1455 8.1587 16.0807 8.3146 16.9381L9.32786 23.2513H63.7307Z" fill="#292929"/>
<path d="M69.1866 23.9528C68.563 23.2514 67.7056 22.8617 66.7704 22.8617H63.7308H9.32777H9.24989H6.13224C5.19701 22.8617 4.33965 23.2514 3.71606 23.9528C3.17049 24.5764 2.93672 25.4338 3.01459 26.291L6.59994 63.6248V63.7026C6.91173 66.0408 8.9381 67.8336 11.2764 67.8336H61.6264C64.1204 67.8336 66.1469 65.9629 66.3028 63.6248L69.8882 26.291C69.966 25.5117 69.7321 24.6543 69.1866 23.9528Z" fill="url(#paint1_linear)"/>
<path d="M46.2718 37.5924H26.6306C25.3056 37.5924 24.2925 38.6057 24.2925 39.9306C24.2925 41.2556 25.3057 42.2687 26.6306 42.2687H46.2718C47.5968 42.2687 48.6099 41.2555 48.6099 39.9306C48.6101 38.6057 47.5968 37.5924 46.2718 37.5924Z" fill="#383838"/>
<defs>
<linearGradient id="paint0_linear" x1="-5.24193" y1="8.93501" x2="-1.05959" y2="27.2076" gradientUnits="userSpaceOnUse">
<stop stop-color="#F1AF37"/>
<stop offset="1" stop-color="#F7941D"/>
</linearGradient>
<linearGradient id="paint1_linear" x1="-29.1376" y1="45.642" x2="11.9606" y2="106.782" gradientUnits="userSpaceOnUse">
<stop stop-color="#F1AF37"/>
<stop offset="1" stop-color="#F7941D"/>
</linearGradient>
</defs>
</svg>
