<svg width="99" height="112" viewBox="0 0 99 112" fill="none" xmlns="http://www.w3.org/2000/svg">
<path d="M98.4375 22.9688V85.75L91.875 92.3125H6.5625L0 85.75V22.9688C0 21.1307 1.44324 19.6875 3.28125 19.6875H95.1562C96.9943 19.6875 98.4375 21.1307 98.4375 22.9688Z" fill="#292929"/>
<path d="M98.4375 22.9688V85.75L91.875 92.3125H49.2188V19.6875H95.1562C96.9943 19.6875 98.4375 21.1307 98.4375 22.9688Z" fill="#292929"/>
<path d="M6.5625 26.25H91.875V79.1875H6.5625V26.25Z" fill="#4C4C4C"/>
<path d="M49.2188 26.25H91.875V79.1875H49.2188V26.25Z" fill="#4C4C4C"/>
<path d="M65.2969 107.276H33.1406L39.7031 94.1505H58.7344L65.2969 107.276Z" fill="#292929"/>
<path d="M58.7344 94.1505L65.2969 107.276H49.2188V94.1505H58.7344Z" fill="#292929"/>
<path d="M49.2188 0C31.1061 0 16.4062 14.6998 16.4062 32.8125C16.4062 50.9252 31.1061 65.625 49.2188 65.625C67.3314 65.625 82.0312 50.9252 82.0312 32.8125C82.0312 14.6998 67.3314 0 49.2188 0Z" fill="url(#paint0_linear)"/>
<path opacity="0.25" d="M75.4688 32.8125C75.4688 47.3158 63.722 59.0625 49.2188 59.0625C34.7155 59.0625 22.9688 47.3158 22.9688 32.8125C22.9688 18.3092 34.7155 6.5625 49.2188 6.5625C63.722 6.5625 75.4688 18.3092 75.4688 32.8125Z" fill="black"/>
<path fill-rule="evenodd" clip-rule="evenodd" d="M61.5789 27.8571C61.5789 24.5143 59.4307 21.6857 56.4632 20.6056V17.5714C56.4632 16.131 55.3381 15 53.9053 15C52.4724 15 51.3474 16.131 51.3474 17.5714V20.1429H46.2316V17.5714C46.2316 16.131 45.1065 15 43.6737 15C42.2409 15 41.1158 16.131 41.1158 17.5714V20.1429H38.5579C37.1251 20.1429 36 21.2739 36 22.7143C36 24.1547 37.1251 25.2857 38.5579 25.2857H41.1158V40.7143H38.5579C37.1251 40.7143 36 41.8453 36 43.2857C36 44.7261 37.1251 45.8571 38.5579 45.8571H41.1158V48.4286C41.1158 49.8683 42.2409 51 43.6737 51C45.1065 51 46.2316 49.8683 46.2316 48.4286V45.8571H51.3474V48.4286C51.3474 49.8683 52.4724 51 53.9053 51C55.3381 51 56.4632 49.8683 56.4632 48.4286V45.3944C59.4307 44.3143 61.5789 41.4857 61.5789 38.1429C61.5789 36.1373 60.8116 34.3888 59.5839 33C60.8116 31.6112 61.5789 29.8627 61.5789 27.8571ZM54.2368 40.5789H46.4211V35.8421H54.2368C55.6962 35.8421 56.8421 36.8838 56.8421 38.2105C56.8421 39.5372 55.6962 40.5789 54.2368 40.5789ZM46.4211 30.1579H54.2368C55.6962 30.1579 56.8421 29.1162 56.8421 27.7895C56.8421 26.4628 55.6962 25.4211 54.2368 25.4211H46.4211V30.1579Z" fill="url(#paint1_linear)"/>
<path d="M98.4375 85.75V95.5938C98.4375 97.4318 96.9943 98.875 95.1562 98.875H3.28125C1.44324 98.875 0 97.4318 0 95.5938V85.75H98.4375Z" fill="#4C4C4C"/>
<path d="M98.4375 85.75V95.5938C98.4375 97.4318 96.9943 98.875 95.1562 98.875H49.2188V85.75H98.4375Z" fill="#4C4C4C"/>
<path d="M78.75 108.719C78.75 110.557 77.3068 112 75.4688 112H22.9688C21.1307 112 19.6875 110.557 19.6875 108.719C19.6875 106.881 21.1307 105.438 22.9688 105.438H75.4688C77.3068 105.438 78.75 106.881 78.75 108.719Z" fill="#4C4C4C"/>
<path d="M78.75 108.719C78.75 110.557 77.3068 112 75.4688 112H49.2188V105.438H75.4688C77.3068 105.438 78.75 106.881 78.75 108.719Z" fill="#4C4C4C"/>
<defs>
<linearGradient id="paint0_linear" x1="-15.1176" y1="33.2421" x2="49.6483" y2="98.0079" gradientUnits="userSpaceOnUse">
<stop stop-color="#F1AF37"/>
<stop offset="1" stop-color="#F7941D"/>
</linearGradient>
<linearGradient id="paint1_linear" x1="23.7128" y1="33.2356" x2="57.2632" y2="57.0741" gradientUnits="userSpaceOnUse">
<stop stop-color="#F1AF37"/>
<stop offset="1" stop-color="#F7941D"/>
</linearGradient>
</defs>
</svg>
