<svg width="104" height="112" viewBox="0 0 104 112" fill="none" xmlns="http://www.w3.org/2000/svg">
<path d="M49.8967 71.8672C51.1517 70.9584 52.8483 70.9584 54.1033 71.8672L59.1724 75.5448L66.8523 81.1035L104 54.2069L54.1033 18.0741C52.8483 17.1653 51.1517 17.1653 49.8967 18.0741L0 54.2069L37.1477 81.1035L44.8276 75.5448L49.8967 71.8672Z" fill="#2E2E2E"/>
<path d="M66.8469 81.1034L59.1724 75.5448L54.1033 71.8725C52.8483 70.9638 51.1517 70.9638 49.8967 71.8725L44.8276 75.5448L37.1477 81.1034L0 108H104L66.8523 81.1034H66.8469Z" fill="#4C4C4C"/>
<path d="M104 108V54.2069L66.8523 81.0999L104 108Z" fill="#393939"/>
<path d="M0 108V54.2069L37.1477 81.0999L0 108Z" fill="#393939"/>
<path d="M87.8621 32.6897V47.0345H79.7931C79.1226 49.6343 78.0905 52.1271 76.7269 54.44L82.429 60.1421L72.28 70.291L66.5779 64.589C64.2651 65.9525 61.7722 66.9847 59.1724 67.6552V75.5448L54.0979 71.869C52.8487 70.9547 51.1513 70.9547 49.9021 71.869L44.8276 75.5448V67.6552C42.2278 66.9847 39.7349 65.9525 37.4221 64.589L31.72 70.291L21.571 60.1421L27.2731 54.44C25.9096 52.1271 24.8774 49.6343 24.2069 47.0345H16.1379V32.6897H24.2069C24.8774 30.0898 25.9096 27.597 27.2731 25.2841L21.571 19.5821L31.72 9.4331L37.4221 15.1352C39.7349 13.7716 42.2278 12.7395 44.8276 12.069V4H59.1724V12.069C61.7722 12.7395 64.2651 13.7716 66.5779 15.1352L72.28 9.4331L82.429 19.5821L76.7269 25.2841C78.0905 27.597 79.1226 30.0898 79.7931 32.6897H87.8621Z" fill="url(#paint0_linear)"/>
<path d="M52 59.5862C62.8934 59.5862 71.7242 50.7554 71.7242 39.8621C71.7242 28.9687 62.8934 20.1379 52 20.1379C41.1067 20.1379 32.2759 28.9687 32.2759 39.8621C32.2759 50.7554 41.1067 59.5862 52 59.5862Z" fill="#2E2E2E"/>
<path d="M51.9999 45.2414C54.9708 45.2414 57.3792 42.833 57.3792 39.8621C57.3792 36.8912 54.9708 34.4828 51.9999 34.4828C49.029 34.4828 46.6206 36.8912 46.6206 39.8621C46.6206 42.833 49.029 45.2414 51.9999 45.2414Z" fill="#292929"/>
<path d="M91.4482 63.2944L104 54.2069L91.4482 63.2944Z" fill="#006DF0"/>
<path fill-rule="evenodd" clip-rule="evenodd" d="M60.9656 52.4138C60.9656 53.4041 60.1628 54.2069 59.1725 54.2069H52.0001C44.0777 54.2069 37.6553 47.7845 37.6553 39.862C37.6553 31.9396 44.0777 25.5172 52.0001 25.5172C59.9225 25.5172 66.3449 31.9396 66.3449 39.862V41.6551C66.3548 43.9166 64.9431 45.9406 62.8175 46.7127C60.6919 47.4847 58.3104 46.8385 56.8666 45.0979C54.3544 47.4347 50.546 47.6847 47.75 45.6962C44.954 43.7077 43.9401 40.0282 45.323 36.8883C46.7059 33.7483 50.1048 32.0123 53.4593 32.7326C56.8139 33.4528 59.2005 36.4312 59.1725 39.862V41.6551C59.1725 42.6454 59.9753 43.4482 60.9656 43.4482C61.9559 43.4482 62.7587 42.6454 62.7587 41.6551V39.862C62.7587 33.9202 57.9419 29.1034 52.0001 29.1034C46.0583 29.1034 41.2415 33.9202 41.2415 39.862C41.2415 45.8039 46.0583 50.6207 52.0001 50.6207H59.1725C60.1628 50.6207 60.9656 51.4235 60.9656 52.4138ZM48.4139 39.862C48.4139 41.8426 50.0195 43.4482 52.0001 43.4482C53.9807 43.4482 55.5863 41.8426 55.5863 39.862C55.5863 37.8814 53.9807 36.2758 52.0001 36.2758C50.0195 36.2758 48.4139 37.8814 48.4139 39.862Z" fill="#4C4C4C"/>
<defs>
<linearGradient id="paint0_linear" x1="-18.3157" y1="40.2407" x2="52.2923" y2="111.026" gradientUnits="userSpaceOnUse">
<stop stop-color="#F1AF37"/>
<stop offset="1" stop-color="#F7941D"/>
</linearGradient>
</defs>
</svg>
