<svg width="112" height="112" viewBox="0 0 112 112" fill="none" xmlns="http://www.w3.org/2000/svg">
<path d="M63.4321 108.196V109.953H111.865V93.1879C85.0942 93.1882 63.4321 99.8024 63.4321 108.196Z" fill="#727272"/>
<path d="M0 93.1882V109.953H50.4917V108.196C50.4917 99.8025 26.7703 93.1882 0 93.1882Z" fill="#727272"/>
<path fill-rule="evenodd" clip-rule="evenodd" d="M57.8445 0.0488892H54.119V9.36282H57.8445V0.0488892ZM17.6962 13.2844L16.0299 16.6172L27.2066 22.2056L28.8729 18.8728L17.6962 13.2844ZM29.9028 39.4002C29.9028 25.8974 41.5787 14.9512 55.9818 14.9512C70.3848 14.9512 82.0608 25.8971 82.0608 39.4002C82.2065 49.2346 76.2831 58.1438 67.1585 61.8149L66.4134 62.2194L63.4329 67.1092H48.5306L45.5502 62.2194L44.805 61.8149C35.6804 58.1438 29.757 49.2346 29.9028 39.4002ZM82.6571 17.9552L94.5107 14.0019L95.6894 17.5365L83.8358 21.4896L82.6571 17.9552ZM20.5888 37.3046H9.41211V41.0302H20.5888V37.3046ZM91.3747 37.3046H102.551V41.0302H91.3747V37.3046ZM27.2071 59.8539L16.0304 65.4422L17.6966 68.775L28.8733 63.1866L27.2071 59.8539ZM83.0851 63.1864L84.7513 59.8536L95.928 65.442L94.2618 68.7747L83.0851 63.1864Z" fill="url(#paint0_linear)"/>
<path opacity="0.25" fill-rule="evenodd" clip-rule="evenodd" d="M50.3936 70.2889H54.1192V53.5239C54.119 53.0298 53.9227 52.5561 53.5734 52.2069L44.2595 42.8929L41.6255 45.5272L50.3936 54.2953V70.2889ZM57.8448 70.2889H61.5703V54.2951L70.3385 45.5269L67.7045 42.8929L58.3906 52.2069C58.0413 52.5561 57.845 53.0298 57.8448 53.5239V70.2889Z" fill="black"/>
<path d="M48.5307 67.1092H63.433C65.4907 67.1092 67.1586 68.7771 67.1586 70.8348C67.1586 72.8924 65.4907 74.5603 63.433 74.5603H48.5307C46.4731 74.5603 44.8052 72.8924 44.8052 70.8348C44.8052 68.7771 46.4731 67.1092 48.5307 67.1092Z" fill="#4C4C4C"/>
<path d="M48.5307 74.5603H63.433C65.4907 74.5603 67.1586 76.2282 67.1586 78.2859C67.1586 80.3436 65.4907 82.0114 63.433 82.0114H48.5307C46.4731 82.0114 44.8052 80.3436 44.8052 78.2859C44.8052 76.2282 46.4731 74.5603 48.5307 74.5603Z" fill="#292929"/>
<path d="M0 108.09H111.864V111.816H0V108.09Z" fill="#4C4C4C"/>
<path opacity="0.25" d="M0.0922852 104.372L0.288111 100.652L35.681 102.515L35.4852 106.235L0.0922852 104.372Z" fill="black"/>
<path opacity="0.25" d="M76.2756 102.511L111.668 100.641L111.865 104.362L76.4722 106.231L76.2756 102.511Z" fill="black"/>
<defs>
<linearGradient id="paint0_linear" x1="-35.3286" y1="34.8618" x2="29.4806" y2="122.693" gradientUnits="userSpaceOnUse">
<stop stop-color="#F1AF37"/>
<stop offset="1" stop-color="#F7941D"/>
</linearGradient>
</defs>
</svg>
